<svg width="576" height="448" viewBox="0 0 576 448" fill="none" xmlns="http://www.w3.org/2000/svg">
<path d="M288.014 0C129.014 0 0.0139966 93.1 0.0139966 208C0.0139966 257.3 23.714 302.5 63.314 338.2C54.614 361.5 41.214 370.9 26.214 381.3C15.114 389 -5.986 401 1.614 424.5C6.714 439.9 22.514 449.2 39.714 447.8C97.414 443.2 150.914 428.6 196.714 405.3C225.414 412.2 256.114 416 287.914 416C447.014 416 575.914 323 575.914 208C576.014 93.1 447.114 0 288.014 0ZM288.014 368C255.514 368 222.614 363.6 190.714 354C158.414 373 112.014 400 56.014 408C88.014 384 112.814 346.4 117.214 319.6C79.114 293.6 48.014 254.7 48.014 208C48.014 137.1 134.314 48 288.014 48C441.714 48 528.014 137.1 528.014 208C528.014 279 441.714 368 288.014 368ZM224.014 208C224.014 234.5 202.514 256 176.014 256C149.514 256 128.014 234.5 128.014 208C128.014 181.5 149.514 160 176.014 160C202.514 160 224.014 181.5 224.014 208ZM336.014 208C336.014 234.5 314.514 256 288.014 256C261.514 256 240.014 234.5 240.014 208C240.014 181.5 261.514 160 288.014 160C314.514 160 336.014 181.5 336.014 208ZM448.014 208C448.014 234.5 426.514 256 400.014 256C373.514 256 352.014 234.5 352.014 208C352.014 181.5 373.514 160 400.014 160C426.514 160 448.014 181.5 448.014 208Z" fill="black"/>
</svg>
